<?xml version="1.0" standalone="no"?>
<!DOCTYPE svg PUBLIC "-//W3C//DTD SVG 20010904//EN"
 "http://www.w3.org/TR/2001/REC-SVG-20010904/DTD/svg10.dtd">
<svg version="1.0" xmlns="http://www.w3.org/2000/svg"
 width="600.000000pt" height="600.000000pt" viewBox="0 0 600.000000 600.000000"
 preserveAspectRatio="xMidYMid meet">
<metadata>
Created by potrace 1.11, written by Peter Selinger 2001-2013
</metadata>
<g transform="translate(0.000000,600.000000) scale(0.100000,-0.100000)"
fill="#000000" stroke="none">
<path d="M4875 5883 c-49 -6 -113 -14 -141 -18 -29 -3 -62 -8 -74 -10 -13 -2
-50 -7 -83 -10 -33 -3 -63 -7 -66 -9 -3 -2 -37 -7 -76 -11 -38 -4 -72 -8 -75
-10 -3 -1 -32 -5 -65 -9 -33 -3 -69 -8 -80 -10 -11 -2 -47 -7 -80 -10 -33 -4
-71 -9 -85 -11 -14 -2 -63 -9 -110 -15 -47 -6 -96 -13 -110 -15 -14 -2 -50 -6
-80 -10 -30 -3 -67 -8 -82 -11 -15 -3 -42 -7 -60 -9 -37 -4 -262 -33 -323 -41
-22 -4 -53 -8 -70 -9 -16 -2 -84 -11 -150 -20 -66 -9 -138 -18 -160 -21 -22
-3 -51 -7 -65 -9 -59 -8 -108 -15 -145 -19 -22 -3 -60 -8 -85 -12 -72 -10
-102 -13 -155 -19 -27 -3 -77 -10 -110 -15 -33 -5 -85 -12 -115 -15 -30 -3
-62 -8 -70 -10 -8 -2 -44 -7 -80 -10 -36 -4 -67 -8 -70 -10 -3 -2 -34 -6 -70
-10 -36 -3 -72 -8 -80 -10 -8 -2 -37 -6 -65 -10 -93 -11 -116 -14 -143 -19
-15 -3 -43 -8 -62 -11 -19 -3 -60 -10 -90 -15 -30 -5 -73 -12 -95 -15 -70 -11
-159 -25 -185 -30 -14 -3 -47 -9 -75 -15 -27 -5 -66 -12 -85 -15 -33 -5 -101
-18 -160 -31 -14 -2 -68 -13 -122 -24 -148 -29 -380 -84 -573 -135 -33 -9 -76
-20 -95 -25 -31 -8 -38 -16 -52 -57 -25 -71 -40 -132 -46 -188 -8 -68 -7 -358
1 -420 4 -27 9 -72 12 -100 3 -27 7 -59 10 -70 2 -11 7 -42 10 -70 3 -27 10
-79 15 -115 5 -36 12 -85 15 -110 3 -25 7 -56 9 -70 6 -34 15 -104 21 -165 3
-27 8 -61 10 -75 3 -14 7 -50 10 -80 4 -30 8 -62 10 -70 2 -8 7 -42 10 -75 3
-33 8 -71 10 -85 6 -29 10 -64 25 -180 6 -47 13 -96 15 -110 2 -14 7 -50 10
-80 3 -30 11 -84 16 -120 10 -62 13 -91 24 -188 3 -23 7 -55 9 -70 4 -23 16
-111 32 -227 2 -16 6 -51 9 -76 3 -25 7 -55 10 -67 2 -11 6 -47 10 -79 3 -32
10 -88 15 -126 6 -37 12 -89 15 -115 3 -26 8 -58 10 -72 2 -14 7 -47 10 -75 4
-27 8 -61 10 -75 8 -58 15 -107 19 -140 14 -111 19 -146 33 -250 8 -63 17
-127 19 -143 1 -15 8 -64 14 -110 6 -45 15 -111 20 -147 5 -36 12 -87 15 -115
3 -27 8 -63 10 -80 6 -41 13 -90 20 -150 3 -27 8 -61 10 -75 3 -14 7 -47 10
-75 5 -50 12 -91 19 -130 2 -11 7 -51 11 -90 7 -70 16 -88 42 -78 12 5 19 -21
14 -50 -1 -4 18 -5 41 -2 24 3 75 10 113 15 39 6 90 12 115 15 89 10 136 17
200 26 36 6 88 12 115 15 28 3 75 9 105 14 30 5 80 12 110 15 30 4 66 8 80 10
14 3 48 7 75 10 28 3 111 14 185 25 74 10 155 21 180 24 77 9 364 47 390 51
31 5 182 25 235 31 22 3 56 7 75 10 19 3 51 7 70 10 19 2 51 6 70 9 19 3 53 7
75 10 22 3 56 7 75 10 19 2 55 7 80 10 82 10 159 21 240 35 30 5 72 12 93 15
20 3 54 7 75 10 20 3 75 13 122 21 47 9 94 18 105 20 24 4 179 31 220 39 17 3
50 10 75 15 25 5 59 12 75 15 17 2 98 18 180 36 83 17 158 32 168 34 10 2 26
6 35 9 9 3 28 7 42 10 78 15 235 51 380 87 91 22 173 42 183 44 10 2 27 7 37
10 10 3 27 7 37 9 110 22 614 181 785 248 l127 49 -31 57 c-55 101 -106 207
-141 295 l-35 85 46 52 46 53 -27 46 c-130 219 -294 617 -332 801 -27 131 -67
333 -71 360 -3 19 -12 71 -19 115 -8 44 -17 103 -21 130 -3 28 -8 59 -10 70
-2 11 -7 40 -10 65 -3 25 -7 56 -9 70 -2 14 -7 48 -10 75 -4 28 -8 61 -10 75
-2 14 -9 63 -15 110 -6 47 -13 96 -15 110 -2 14 -7 48 -10 75 -7 60 -11 90
-25 198 -14 98 -17 119 -24 177 -10 82 -51 392 -61 460 -3 19 -7 53 -10 75 -6
48 -15 120 -21 155 -2 14 -6 50 -9 80 -3 30 -8 64 -10 75 -2 11 -7 43 -10 70
-3 28 -10 79 -15 115 -8 56 -31 231 -46 350 -2 19 -8 67 -14 105 -5 39 -12 90
-15 115 -11 106 -15 117 -38 116 -12 -1 -22 5 -23 12 -1 6 -2 18 -3 26 -1 16
0 16 -126 -1z"/>
</g>
</svg>
