<?xml version="1.0" standalone="no"?>
<!DOCTYPE svg PUBLIC "-//W3C//DTD SVG 20010904//EN"
 "http://www.w3.org/TR/2001/REC-SVG-20010904/DTD/svg10.dtd">
<svg version="1.0" xmlns="http://www.w3.org/2000/svg"
 width="512.000000pt" height="512.000000pt" viewBox="0 0 512.000000 512.000000"
 preserveAspectRatio="xMidYMid meet">
<metadata>
Created by potrace 1.11, written by Peter Selinger 2001-2013
</metadata>
<g transform="translate(0.000000,512.000000) scale(0.100000,-0.100000)"
fill="#000000" stroke="none">
<path d="M3185 4884 c-49 -13 -103 -26 -119 -29 -16 -3 -140 -33 -275 -66
-135 -34 -253 -62 -261 -64 -8 -2 -35 -8 -60 -15 -25 -6 -54 -12 -65 -15 -23
-4 -94 -22 -145 -35 -42 -12 -207 -50 -235 -56 -11 -2 -40 -9 -65 -17 -47 -13
-130 -4 -130 15 0 5 -4 7 -9 4 -7 -5 -215 41 -269 59 -12 4 -29 -26 -35 -64
-2 -9 -9 -41 -16 -72 l-13 -56 -77 -18 c-42 -10 -80 -20 -86 -21 -15 -4 -327
-80 -535 -130 -221 -55 -214 -53 -243 -59 -65 -14 -157 -38 -157 -41 0 -2 11
-51 25 -109 14 -58 27 -116 30 -128 2 -12 16 -67 30 -122 14 -55 27 -109 30
-120 4 -21 14 -62 19 -80 1 -5 8 -37 15 -70 7 -33 16 -69 21 -80 5 -11 12 -38
16 -60 4 -22 8 -47 10 -55 1 -8 7 -31 13 -50 10 -34 59 -234 66 -268 2 -9 10
-45 19 -78 9 -34 16 -68 16 -76 0 -11 -116 -106 -248 -204 -13 -9 -12 -15 4
-40 20 -31 20 -31 88 -116 25 -31 46 -60 46 -64 0 -4 8 -14 18 -23 9 -9 37
-43 62 -76 25 -33 69 -90 98 -128 30 -38 50 -72 46 -79 -4 -6 -3 -8 3 -5 6 4
18 -2 28 -13 10 -11 15 -20 11 -20 -4 0 2 -10 13 -22 23 -24 23 -21 -14 -168
-23 -95 -32 -132 -38 -164 -1 -6 26 -18 61 -26 34 -9 59 -20 55 -24 -5 -5 2
-5 15 -2 14 5 22 3 22 -4 0 -6 4 -9 9 -6 11 7 23 -52 14 -68 -3 -6 -2 -8 2 -3
7 6 63 -194 79 -283 11 -63 18 -66 102 -41 22 6 36 5 44 -2 10 -9 11 -9 7 -1
-4 7 0 14 8 18 8 3 15 1 15 -4 0 -6 5 -10 11 -10 5 0 8 4 5 9 -3 4 13 13 35
20 33 10 44 10 57 -1 10 -8 13 -9 9 -1 -9 14 0 20 41 28 26 4 33 1 51 -28 11
-17 31 -44 43 -59 47 -55 73 -92 71 -100 -2 -4 1 -8 6 -8 5 0 28 -26 52 -57
23 -32 46 -60 49 -63 15 -12 75 -106 72 -113 -1 -5 2 -6 6 -3 13 8 94 -103 86
-116 -4 -6 -3 -8 3 -5 11 7 150 -168 146 -184 -2 -5 1 -8 6 -6 4 1 24 -19 44
-46 20 -26 35 -47 33 -47 -2 0 14 -19 35 -42 21 -23 36 -44 34 -46 -2 -3 6
-13 18 -23 12 -10 19 -18 15 -19 -3 0 6 -13 20 -28 15 -16 35 -39 45 -52 9
-13 17 -19 17 -12 0 7 7 12 15 12 8 0 15 5 15 11 0 6 10 8 23 5 12 -3 16 -3
10 0 -19 8 -16 27 3 20 8 -3 13 -2 10 2 -3 5 8 16 25 26 16 9 29 21 29 27 0 5
5 9 10 9 6 0 19 9 30 20 24 24 45 26 36 4 -3 -9 -2 -12 5 -9 5 4 7 16 3 27 -4
15 -2 19 7 15 8 -2 13 -10 11 -16 -1 -7 3 -9 9 -6 8 5 8 10 0 18 -13 13 14 47
36 47 7 0 13 5 13 11 0 6 10 8 23 5 12 -3 16 -3 8 0 -22 10 41 60 71 55 4 0 4
7 1 16 -5 13 -2 15 11 10 9 -4 15 -3 12 2 -3 5 6 16 20 26 21 13 28 14 42 4
14 -11 15 -11 5 1 -12 13 -19 39 -8 28 3 -3 20 8 36 23 17 16 38 29 46 29 8 0
11 5 7 12 -4 6 -3 8 4 4 6 -3 15 0 19 9 13 23 75 65 86 58 6 -3 7 -1 3 5 -4 6
4 16 16 23 13 7 39 27 58 46 19 18 38 33 43 33 4 0 21 12 38 27 17 16 34 28
37 28 3 0 15 9 27 20 32 31 86 70 99 70 6 1 10 7 8 14 -1 7 2 10 8 6 5 -3 10
-2 10 3 0 16 33 24 41 10 4 -7 11 -10 14 -6 3 3 -1 13 -10 22 -9 9 -12 16 -6
16 5 0 12 -4 16 -10 3 -5 12 -7 19 -4 8 3 17 1 20 -5 4 -6 14 -7 23 -4 11 4
14 3 9 -5 -5 -8 -1 -10 10 -5 14 5 16 3 11 -13 -7 -19 -7 -19 8 0 8 11 15 14
15 7 0 -7 4 -9 10 -6 5 3 29 1 52 -6 48 -13 49 -13 101 -24 20 -4 37 -11 37
-16 0 -5 7 -6 15 -2 9 3 22 -2 31 -13 12 -17 13 -17 8 -1 -5 13 -2 16 12 11
14 -4 16 -3 5 4 -8 6 -10 15 -5 23 5 8 7 22 5 33 -1 10 2 16 7 12 5 -3 7 6 4
22 -5 25 -4 26 13 12 17 -14 17 -14 7 7 -17 30 -15 43 6 43 10 0 13 3 6 8 -12
7 -7 72 5 72 3 0 7 17 9 38 1 20 7 39 12 40 6 2 8 8 4 13 -3 5 1 9 8 9 9 0 9
3 -2 10 -13 8 -13 10 2 10 21 0 32 16 17 26 -8 4 -9 3 -5 -4 4 -7 2 -12 -4
-12 -7 0 -9 7 -6 16 3 9 6 18 6 21 0 4 9 -2 20 -12 11 -10 20 -13 20 -7 0 6
-6 12 -12 15 -9 3 -5 12 11 30 13 15 28 24 33 20 6 -3 5 4 -2 16 -10 19 -9 22
7 19 19 -3 20 3 7 37 -4 11 -4 17 -1 14 4 -3 26 11 48 32 23 21 50 41 60 44
11 4 19 11 19 18 0 6 7 2 15 -9 14 -19 14 -18 9 2 -4 15 2 27 23 42 15 12 36
29 45 38 9 9 22 13 29 8 8 -4 10 -3 5 4 -4 7 -1 12 9 12 10 0 13 5 9 13 -4 6
-4 9 0 6 4 -4 20 5 35 20 41 38 61 53 61 46 0 -3 11 4 25 17 43 40 54 48 70
48 9 0 14 4 11 9 -3 5 19 27 48 49 41 31 57 37 66 28 10 -8 11 -8 6 1 -7 13
22 53 39 53 5 0 23 14 39 30 16 17 33 30 38 30 15 0 8 23 -17 55 -13 18 -21
35 -18 39 4 3 2 6 -4 6 -6 0 -30 26 -54 58 -24 31 -47 59 -51 60 -5 2 -8 8 -8
13 0 6 -9 19 -20 31 -10 12 -17 26 -13 31 3 6 2 7 -4 4 -12 -8 -56 50 -48 63
3 5 0 8 -7 5 -7 -3 -23 12 -37 34 -13 22 -35 51 -48 65 -13 15 -21 31 -17 38
4 6 3 8 -3 5 -6 -4 -19 5 -29 20 -9 15 -26 36 -36 47 -10 11 -18 26 -18 33 0
7 -7 13 -16 13 -13 0 -14 3 -5 14 18 21 22 59 8 68 -9 5 -9 10 0 19 6 6 9 18
6 25 -3 8 -1 14 4 14 5 0 9 10 9 21 -1 12 5 24 12 26 8 3 10 -1 5 -14 -7 -19
-5 -18 17 10 7 10 9 17 4 16 -20 -3 -34 2 -34 12 0 6 7 9 15 5 12 -4 13 -2 3
13 -9 15 -8 25 6 46 10 15 14 25 8 22 -5 -4 -7 4 -4 18 2 15 9 22 16 18 17
-11 37 -12 30 -2 -3 5 -9 7 -14 4 -12 -8 -21 23 -14 51 4 14 12 23 18 21 6 -3
12 3 12 13 0 10 -4 16 -8 14 -4 -3 -8 2 -8 11 0 9 4 14 9 11 5 -4 7 4 3 16 -3
14 -1 19 6 14 6 -3 14 -2 17 4 4 6 1 9 -7 8 -14 -3 -12 35 2 40 5 2 6 10 3 18
-3 8 2 17 12 20 11 5 13 9 5 14 -6 4 -9 17 -5 32 5 20 12 25 31 23 13 -1 21 2
18 7 -3 5 -11 7 -18 6 -6 -2 -13 -1 -15 2 -3 6 8 57 21 91 5 15 11 37 14 50 2
13 6 40 10 59 3 19 13 41 22 48 9 7 11 12 4 12 -7 0 -12 5 -12 11 0 5 4 7 10
4 6 -3 7 1 4 10 -4 8 -1 21 5 29 6 7 9 15 6 17 -2 3 1 22 6 44 6 22 12 49 14
60 2 11 9 38 14 60 5 22 9 40 8 41 -1 1 -53 14 -114 29 -62 15 -111 30 -108
34 2 4 -9 5 -26 3 -18 -3 -29 0 -29 7 0 7 -4 10 -9 7 -11 -7 -385 85 -389 96
-2 4 -7 6 -12 3 -9 -6 -233 49 -226 56 2 2 -7 5 -20 5 -30 2 -33 5 -39 33 -2
13 -7 32 -11 43 -4 15 -3 19 7 14 8 -4 7 -2 -2 6 -25 21 -31 48 -11 48 16 1
16 1 -1 11 -12 7 -16 17 -11 31 4 13 2 18 -4 14 -11 -6 -26 59 -17 73 3 5 0
11 -5 13 -6 2 -12 19 -13 38 -1 19 -4 37 -7 40 -3 3 -11 22 -17 43 -8 28 -8
37 0 37 8 0 7 4 -2 9 -7 5 -14 25 -15 44 0 19 -5 33 -10 29 -5 -3 -7 5 -4 16
4 12 2 22 -3 22 -6 0 -9 6 -8 13 1 6 -1 19 -4 27 -4 8 -8 24 -11 35 -10 55
-19 85 -25 84 -3 0 -46 -12 -96 -25z m969 -2099 c-4 -8 -8 -15 -10 -15 -2 0
-4 7 -4 15 0 8 4 15 10 15 5 0 7 -7 4 -15z m-261 -1229 c3 -8 -1 -13 -11 -12
-9 0 -16 -5 -14 -12 3 -16 -45 -68 -54 -59 -4 4 -3 7 3 7 6 0 9 12 7 26 -2 19
3 28 17 31 10 3 16 10 12 16 -3 6 -1 7 5 3 7 -4 12 -2 12 3 0 16 17 13 23 -3z"/>
<path d="M3836 1518 c3 -5 10 -6 15 -3 13 9 11 12 -6 12 -8 0 -12 -4 -9 -9z"/>
<path d="M3375 4669 c-4 -6 -5 -12 -2 -15 2 -3 7 2 10 11 7 17 1 20 -8 4z"/>
<path d="M3395 4600 c-3 -5 -1 -10 4 -10 6 0 11 5 11 10 0 6 -2 10 -4 10 -3 0
-8 -4 -11 -10z"/>
<path d="M3406 4498 c3 -5 10 -6 15 -3 13 9 11 12 -6 12 -8 0 -12 -4 -9 -9z"/>
<path d="M4426 3838 c3 -5 10 -6 15 -3 13 9 11 12 -6 12 -8 0 -12 -4 -9 -9z"/>
<path d="M4426 3782 c-3 -5 1 -9 9 -9 8 0 12 4 9 9 -3 4 -7 8 -9 8 -2 0 -6 -4
-9 -8z"/>
<path d="M4399 3698 c-5 -18 -6 -38 -1 -34 7 8 12 36 6 36 -2 0 -4 -1 -5 -2z"/>
<path d="M4353 3553 c0 -9 4 -10 14 -2 7 6 13 12 13 14 0 1 -6 2 -13 2 -8 0
-14 -6 -14 -14z"/>
<path d="M4331 3484 c0 -11 3 -14 6 -6 3 7 2 16 -1 19 -3 4 -6 -2 -5 -13z"/>
<path d="M4350 3423 c0 -6 8 -17 18 -24 16 -13 16 -13 2 6 -8 11 -16 22 -17
24 -2 2 -3 0 -3 -6z"/>
<path d="M4293 3275 c0 -8 4 -12 9 -9 4 3 8 9 8 15 0 5 -4 9 -8 9 -5 0 -9 -7
-9 -15z"/>
<path d="M4270 3103 c0 -6 8 -17 18 -24 16 -13 16 -13 2 6 -8 11 -16 22 -17
24 -2 2 -3 0 -3 -6z"/>
<path d="M4213 3007 c0 -8 6 -14 14 -14 9 0 10 4 2 14 -6 7 -12 13 -14 13 -1
0 -2 -6 -2 -13z"/>
<path d="M4190 2780 c0 -5 5 -10 11 -10 5 0 7 5 4 10 -3 6 -8 10 -11 10 -2 0
-4 -4 -4 -10z"/>
<path d="M4170 2771 c0 -6 4 -13 10 -16 6 -3 7 1 4 9 -7 18 -14 21 -14 7z"/>
<path d="M4610 2100 c0 -5 5 -10 11 -10 5 0 7 5 4 10 -3 6 -8 10 -11 10 -2 0
-4 -4 -4 -10z"/>
<path d="M4555 2081 c-3 -5 -2 -12 3 -15 5 -3 9 1 9 9 0 17 -3 19 -12 6z"/>
<path d="M4511 2027 c-8 -10 -7 -14 2 -14 8 0 14 6 14 14 0 7 -1 13 -2 13 -2
0 -8 -6 -14 -13z"/>
<path d="M4412 1973 c-7 -2 -16 -12 -21 -22 -7 -13 -5 -17 10 -17 12 0 15 4 9
10 -6 6 -3 14 8 22 18 14 16 16 -6 7z"/>
<path d="M4413 1895 c0 -8 4 -12 9 -9 5 3 6 10 3 15 -9 13 -12 11 -12 -6z"/>
<path d="M4301 1877 c-13 -21 -12 -21 5 -5 10 10 16 20 13 22 -3 3 -11 -5 -18
-17z"/>
<path d="M4359 1873 c-13 -17 -13 -17 6 -3 11 8 22 16 24 17 2 2 0 3 -6 3 -6
0 -17 -8 -24 -17z"/>
<path d="M4255 1839 c-4 -6 -5 -12 -2 -15 2 -3 7 2 10 11 7 17 1 20 -8 4z"/>
<path d="M4214 1823 c3 -6 -2 -16 -11 -22 -16 -9 -16 -10 3 -8 21 1 26 19 9
34 -4 4 -5 3 -1 -4z"/>
<path d="M4275 1801 c-3 -5 -2 -12 3 -15 5 -3 9 1 9 9 0 17 -3 19 -12 6z"/>
<path d="M4253 1755 c0 -8 4 -12 9 -9 5 3 6 10 3 15 -9 13 -12 11 -12 -6z"/>
<path d="M4095 1721 c-3 -5 -2 -12 3 -15 5 -3 9 1 9 9 0 17 -3 19 -12 6z"/>
<path d="M4130 1699 c0 -5 5 -7 10 -4 6 3 10 8 10 11 0 2 -4 4 -10 4 -5 0 -10
-5 -10 -11z"/>
<path d="M3987 1639 c7 -7 15 -10 18 -7 3 3 -2 9 -12 12 -14 6 -15 5 -6 -5z"/>
<path d="M4020 1646 c0 -2 8 -10 18 -17 15 -13 16 -12 3 4 -13 16 -21 21 -21
13z"/>
<path d="M3931 1598 c-1 -21 15 -32 25 -17 4 7 3 9 -4 5 -6 -3 -13 2 -15 11
-4 16 -5 16 -6 1z"/>
<path d="M3970 1579 c0 -5 5 -7 10 -4 6 3 10 8 10 11 0 2 -4 4 -10 4 -5 0 -10
-5 -10 -11z"/>
<path d="M3915 1560 c3 -5 8 -10 11 -10 2 0 4 5 4 10 0 6 -5 10 -11 10 -5 0
-7 -4 -4 -10z"/>
<path d="M3945 1540 c-3 -6 1 -7 9 -4 18 7 21 14 7 14 -6 0 -13 -4 -16 -10z"/>
<path d="M3911 1527 c-8 -10 -7 -14 2 -14 8 0 14 6 14 14 0 7 -1 13 -2 13 -2
0 -8 -6 -14 -13z"/>
<path d="M3875 1480 c3 -5 8 -10 11 -10 2 0 4 5 4 10 0 6 -5 10 -11 10 -5 0
-7 -4 -4 -10z"/>
<path d="M3856 1415 c-9 -26 -7 -32 5 -12 6 10 9 21 6 23 -2 3 -7 -2 -11 -11z"/>
<path d="M3815 1380 c-3 -6 1 -7 9 -4 18 7 21 14 7 14 -6 0 -13 -4 -16 -10z"/>
<path d="M1421 1364 c0 -11 3 -14 6 -6 3 7 2 16 -1 19 -3 4 -6 -2 -5 -13z"/>
<path d="M1293 1336 c-3 -6 -3 -8 2 -4 4 4 13 3 20 -2 8 -7 12 -5 12 3 0 16
-25 18 -34 3z"/>
<path d="M1347 1339 c7 -7 15 -10 18 -7 3 3 -2 9 -12 12 -14 6 -15 5 -6 -5z"/>
<path d="M1407 1339 c7 -7 15 -10 18 -7 3 3 -2 9 -12 12 -14 6 -15 5 -6 -5z"/>
<path d="M3816 1327 c3 -10 9 -15 12 -12 3 3 0 11 -7 18 -10 9 -11 8 -5 -6z"/>
<path d="M1150 1299 c0 -5 5 -7 10 -4 6 3 10 8 10 11 0 2 -4 4 -10 4 -5 0 -10
-5 -10 -11z"/>
<path d="M1285 1300 c-3 -6 1 -7 9 -4 18 7 21 14 7 14 -6 0 -13 -4 -16 -10z"/>
<path d="M3810 1261 c0 -6 4 -13 10 -16 6 -3 7 1 4 9 -7 18 -14 21 -14 7z"/>
<path d="M3783 1242 c10 -10 14 -22 10 -27 -5 -4 -2 -5 5 -1 11 6 10 12 -4 27
-9 10 -19 19 -22 19 -3 0 2 -8 11 -18z"/>
<path d="M3350 1121 c0 -8 50 -34 56 -29 1 2 -11 11 -27 20 -16 9 -29 14 -29
9z"/>
<path d="M3296 1111 c-3 -5 5 -16 19 -25 14 -9 25 -12 25 -7 0 5 -9 13 -20 16
-11 4 -18 11 -15 16 4 5 4 9 1 9 -3 0 -7 -4 -10 -9z"/>
<path d="M3796 1087 c3 -10 9 -15 12 -12 3 3 0 11 -7 18 -10 9 -11 8 -5 -6z"/>
<path d="M3277 1083 c-10 -9 -9 -23 1 -23 5 0 9 7 9 15 0 17 -1 18 -10 8z"/>
<path d="M3513 1075 c0 -8 4 -12 9 -9 5 3 6 10 3 15 -9 13 -12 11 -12 -6z"/>
<path d="M3232 1067 c-8 -10 -6 -13 11 -14 12 0 16 1 9 4 -6 3 -10 9 -6 14 8
14 -2 11 -14 -4z"/>
<path d="M3300 1066 c0 -2 7 -7 16 -10 8 -3 12 -2 9 4 -6 10 -25 14 -25 6z"/>
<path d="M3159 1018 c-5 -18 -6 -38 -1 -34 7 8 12 36 6 36 -2 0 -4 -1 -5 -2z"/>
<path d="M3226 958 c3 -5 10 -6 15 -3 13 9 11 12 -6 12 -8 0 -12 -4 -9 -9z"/>
<path d="M3036 914 c-22 -22 -20 -31 2 -11 10 10 22 14 25 10 4 -3 7 -1 7 5 0
17 -16 15 -34 -4z"/>
<path d="M3090 899 c0 -5 5 -7 10 -4 6 3 10 8 10 11 0 2 -4 4 -10 4 -5 0 -10
-5 -10 -11z"/>
<path d="M3055 889 c-4 -6 -5 -12 -2 -15 2 -3 7 2 10 11 7 17 1 20 -8 4z"/>
<path d="M2970 819 c0 -5 5 -7 10 -4 6 3 10 8 10 11 0 2 -4 4 -10 4 -5 0 -10
-5 -10 -11z"/>
<path d="M2906 804 c-19 -19 -21 -31 -3 -15 8 6 16 9 19 6 2 -3 5 2 5 10 0 19
-2 19 -21 -1z"/>
<path d="M2870 766 c0 -2 7 -7 16 -10 8 -3 12 -2 9 4 -6 10 -25 14 -25 6z"/>
<path d="M2717 649 c7 -7 15 -10 18 -7 3 3 -2 9 -12 12 -14 6 -15 5 -6 -5z"/>
<path d="M2690 641 c0 -6 4 -13 10 -16 6 -3 7 1 4 9 -7 18 -14 21 -14 7z"/>
<path d="M2517 509 c7 -7 15 -10 18 -7 3 3 -2 9 -12 12 -14 6 -15 5 -6 -5z"/>
<path d="M2550 506 c0 -2 7 -7 16 -10 8 -3 12 -2 9 4 -6 10 -25 14 -25 6z"/>
<path d="M2399 423 c-5 -36 -5 -62 -1 -58 7 7 12 65 6 65 -2 0 -4 -3 -5 -7z"/>
<path d="M2353 367 c0 -8 6 -14 14 -14 9 0 10 4 2 14 -6 7 -12 13 -14 13 -1 0
-2 -6 -2 -13z"/>
</g>
</svg>
